<?xml version="1.0" encoding="utf-8"?>
<!-- Generator: Adobe Illustrator 24.2.3, SVG Export Plug-In . SVG Version: 6.00 Build 0)  -->
<svg version="1.1" id="Layer_1" xmlns="http://www.w3.org/2000/svg" xmlns:xlink="http://www.w3.org/1999/xlink" x="0px" y="0px"
	 viewBox="0 0 500 500" style="enable-background:new 0 0 500 500;" xml:space="preserve">
<style type="text/css">
	.st0{fill:#95827D;}
</style>
<g>
	<path class="st0" d="M409.2,421.7v3.9H298.5v-3.9c26.9,0,28.8-22.3,28.8-64.2V191c0-49.8-15.7-81.3-61.6-81.3
		c-28.8,0-60.3,14.4-88.5,36.7v211c0,41.9,2,64.2,28.8,64.2v3.9H95.3v-3.9c26.9,0,28.8-22.3,28.8-64.2v-190
		c0-41.9-11.1-55.7-33.4-61.6v-3.9l83.9-26.2h2.6v64.2c34.7-36,76-65.5,119.9-65.5c51.1,0,83.2,36,83.2,102.2v180.9
		C380.4,399.4,382.4,421.7,409.2,421.7z"/>
</g>
</svg>
