<?xml version="1.0" encoding="utf-8"?>
<!-- Generator: Adobe Illustrator 24.2.3, SVG Export Plug-In . SVG Version: 6.00 Build 0)  -->
<svg version="1.1" id="Layer_1" xmlns="http://www.w3.org/2000/svg" xmlns:xlink="http://www.w3.org/1999/xlink" x="0px" y="0px"
	 viewBox="0 0 500 500" style="enable-background:new 0 0 500 500;" xml:space="preserve">
<style type="text/css">
	.st0{fill:#95827D;stroke:#95827D;stroke-width:8;stroke-miterlimit:10;}
</style>
<g>
	<path class="st0" d="M14.5,260.3c130.8,0,282,0,412.8,0.1c5.1,0,10.6-1.2,17.3,2.4c-63.9,28.3-93.8,77.8-97,144.7
		c10.8,0,21.7,0,32.5,0c-6.9-54.7,14.5-115.2,61.5-136.4c13.8-6.2,28.2-10,43.6-8.7c0-8.3,0-16.7,0-25
		c-35.5,0.1-64.2-14.2-83.5-43.8c-20-30.6-26.8-64.9-21.6-101.3c-10.8,0-21.7,0-32.5,0c2.5,66.2,32.1,114.8,93.9,142.7
		c-5.5,4.5-10.7,2.9-15.4,2.9C294.1,238,146.7,238,14.5,238V260.3z"/>
</g>
</svg>
